<svg xmlns="http://www.w3.org/2000/svg">
   <g id="icon-camera">
      <path d="M1021.9,259.7c-27.2-27.2-60-40.8-98.4-40.8H801.7l-27.7-74c-6.8-17.7-19.4-33-37.8-45.9s-37.1-19.3-56.3-19.3H401.5   c-19.2,0-38,6.4-56.3,19.3s-30.9,28.2-37.8,46l-27.7,74H157.9c-38.4,0-71.2,13.6-98.4,40.8s-40.8,60-40.8,98.3v487.2   c0,38.4,13.6,71.2,40.8,98.4s60,40.8,98.4,40.8h765.6c38.4,0,71.2-13.6,98.4-40.8c27.2-27.2,40.8-60,40.8-98.4V358   C1062.7,319.6,1049.1,286.9,1021.9,259.7z M712.8,773.8c-47.7,47.7-105.1,71.5-172.1,71.5s-124.4-23.9-172.1-71.5   c-47.7-47.7-71.5-105.1-71.5-172.1s23.9-124.4,71.5-172.1c47.7-47.7,105-71.5,172-71.5s124.4,23.8,172.2,71.5   c47.7,47.7,71.5,105.1,71.5,172.2S760.5,726.2,712.8,773.8z"></path>
      <path d="M540.7,445c-43.1,0-80,15.3-110.6,46s-46,67.6-46,110.7c0,43.1,15.3,80,46,110.7s67.5,45.9,110.6,45.9s80-15.3,110.7-45.9   s46-67.5,46-110.7s-15.3-80-46-110.7S583.8,445,540.7,445z"></path>
   </g>
</svg>