<svg xmlns="http://www.w3.org/2000/svg">
   <g id="icon-code">
   	<path d="M987.4,86.4H102.5c-33.4,0-60.4,27-60.5,60.4v792.9c0.1,33.4,27.1,60.4,60.5,60.4h884.9c33.4,0,60.4-27,60.4-60.4V146.8   C1047.8,113.4,1020.7,86.4,987.4,86.4z M805.1,187.9c0-12.3,10-22.3,22.3-22.3h22.3c12.3,0,22.3,10,22.3,22.3l0,0v25.3   c0,12.3-10,22.3-22.3,22.3h-22.3c-12.3,0-22.3-10-22.3-22.3l0,0V187.9z M701.4,187.9c0-12.3,10-22.3,22.3-22.3H746   c12.3,0,22.3,10,22.3,22.3l0,0v25.3c0,12.3-10,22.3-22.3,22.3h-22.3c-12.3,0-22.3-10-22.3-22.3l0,0V187.9z M975.3,927.6H114.5v-625   h860.7L975.3,927.6L975.3,927.6z M975.9,213.2c0,12.3-10,22.3-22.3,22.3h-22.3c-12.3,0-22.3-10-22.3-22.3l0,0v-25.3   c0-12.3,10-22.3,22.3-22.3h22.3c12.3,0,22.3,10,22.3,22.3l0,0V213.2z"></path>
   	<path d="M257.9,638.6l161.8,75.3c15.7,7.3,34.4,0.5,41.8-15.3l0,0c1.9-4.1,2.9-8.6,2.9-13.2v-0.8c0-12.2-7.1-23.4-18.2-28.5   L345,609l101.2-47c11.1-5.2,18.2-16.3,18.2-28.5v-0.8c0-17.3-14-31.4-31.4-31.4l0,0l0,0c-4.6,0-9.1,0.9-13.3,2.8l-161.8,75.3   c-11.1,5.2-18.2,16.3-18.2,28.5v2.2C239.7,622.3,246.8,633.4,257.9,638.6z"></path>
   	<path d="M465.8,791.9c5.9,8.1,15.4,12.9,25.4,12.9h0.8c13.7,0,25.8-8.8,29.9-21.8l106.6-330.2c5.3-16.5-3.8-34.2-20.3-39.5l0,0   h-0.1c-3.1-1-6.3-1.5-9.5-1.5h-0.8c-13.7-0.1-25.8,8.8-30,21.8L461.3,763.8C458.2,773.3,459.9,783.8,465.8,791.9z"></path>
   	<path d="M625.4,533.5c0,12.2,7.1,23.3,18.2,28.5l101.2,47l-101.2,47c-11.1,5.2-18.2,16.3-18.2,28.5v0.8c0,17.3,14.1,31.4,31.4,31.4   l0,0h0.1c4.6,0,9.1-1,13.3-2.9L832,638.6c11.1-5.2,18.2-16.3,18.2-28.5v-2.3c0-12.2-7.1-23.3-18.2-28.5L670.1,504   c-9.8-4.5-21.1-3.7-30.2,2c-9.1,5.7-14.6,15.8-14.5,26.5L625.4,533.5L625.4,533.5z"></path>
   </g>
</svg>